<?xml version="1.0" encoding="UTF-8" standalone="no"?>
<svg width="18px" height="18px" viewBox="0 0 18 18" version="1.1" xmlns="http://www.w3.org/2000/svg" xmlns:xlink="http://www.w3.org/1999/xlink" xmlns:sketch="http://www.bohemiancoding.com/sketch/ns">
    <!-- Generator: Sketch 3.3.3 (12081) - http://www.bohemiancoding.com/sketch -->
    <title>Line</title>
    <desc>Created with Sketch.</desc>
    <defs></defs>
    <g id="Page-1" stroke="none" stroke-width="1" fill="none" fill-rule="evenodd" sketch:type="MSPage">
        <g id="Line-+-Line-Copy-15" sketch:type="MSLayerGroup" fill="#FFFFFF">
            <path d="M9,10.4142136 L2.26168832,16.7781746 C1.84819201,17.1686989 1.17778203,17.1686989 0.764285725,16.7781746 C0.350789416,16.3876503 0.350789416,15.7544853 0.764285725,15.363961 L7.5025974,9 L0.764285725,2.63603897 C0.350789416,2.24551468 0.350789416,1.6123497 0.764285725,1.22182541 C1.17778203,0.831301115 1.84819201,0.831301115 2.26168832,1.22182541 L9,7.58578644 L15.7383117,1.22182541 C16.151808,0.831301115 16.822218,0.831301115 17.2357143,1.22182541 C17.6492106,1.6123497 17.6492106,2.24551468 17.2357143,2.63603897 L10.4974026,9 L17.2357143,15.363961 C17.6492106,15.7544853 17.6492106,16.3876503 17.2357143,16.7781746 C16.822218,17.1686989 16.151808,17.1686989 15.7383117,16.7781746 L9,10.4142136 Z" id="Line" sketch:type="MSShapeGroup"></path>
        </g>
    </g>
</svg>