<?xml version="1.0" encoding="UTF-8" standalone="no"?>
<svg width="93px" height="40px" viewBox="0 0 93 40" version="1.1" xmlns="http://www.w3.org/2000/svg" xmlns:xlink="http://www.w3.org/1999/xlink" xmlns:sketch="http://www.bohemiancoding.com/sketch/ns">
    <!-- Generator: Sketch 3.3.3 (12081) - http://www.bohemiancoding.com/sketch -->
    <title>datu-logo_black copy 3</title>
    <desc>Created with Sketch.</desc>
    <defs>
        <path id="path-1" d="M0.0648648649,0.758918919 L92.4551351,0.758918919 L92.4551351,39.9351351 L0.0648648649,39.9351351"></path>
        <path id="path-3" d="M0.0648648649,0.758918919 L92.4551351,0.758918919 L92.4551351,39.9351351 L0.0648648649,39.9351351"></path>
    </defs>
    <g id="Page-1" stroke="none" stroke-width="1" fill="none" fill-rule="evenodd" sketch:type="MSPage">
        <g id="datu-logo_black-copy-3" sketch:type="MSLayerGroup" transform="translate(0.250000, 0.000000)">
            <g id="Group-8">
                <mask id="mask-2" sketch:name="Clip 2" fill="white">
                    <use xlink:href="#path-1"></use>
                </mask>
                <g id="Clip-2"></g>
                <path d="M30.9664865,39.5437838 C30.9664865,39.8594595 30.7178378,39.9837838 30.4962162,39.9837838 C30.267027,39.9837838 30.0367568,39.8594595 30.0367568,39.5437838 L30.0367568,37.3664865 L27.2010811,37.3664865 L27.2010811,39.5437838 C27.2010811,39.8594595 26.9535135,39.9837838 26.7318919,39.9837838 C26.5016216,39.9837838 26.2713514,39.8594595 26.2713514,39.5437838 L26.2713514,34.6432432 C26.2713514,34.3286486 26.5016216,34.2043243 26.7318919,34.2043243 C26.9535135,34.2043243 27.2010811,34.3286486 27.2010811,34.6432432 L27.2010811,36.5881081 L30.0367568,36.5881081 L30.0367568,34.6432432 C30.0367568,34.3286486 30.267027,34.2043243 30.4962162,34.2043243 C30.7178378,34.2043243 30.9664865,34.3286486 30.9664865,34.6432432 L30.9664865,39.5437838" id="Fill-1" fill="#55565A" sketch:type="MSShapeGroup" mask="url(#mask-2)"></path>
                <path d="M34.9978378,39.0140541 C34.9978378,39.0886486 35.0324324,39.1308108 35.1210811,39.1308108 L37.4962162,39.1308108 C37.7708108,39.1308108 37.8951351,39.3297297 37.8951351,39.5113514 C37.8951351,39.7016216 37.7708108,39.9081081 37.4962162,39.9081081 L34.7491892,39.9081081 C34.412973,39.9081081 34.067027,39.7189189 34.067027,39.2551351 L34.067027,34.932973 C34.067027,34.4691892 34.412973,34.2789189 34.7491892,34.2789189 L37.3978378,34.2789189 C37.6724324,34.2789189 37.7967568,34.4940541 37.7967568,34.6756757 C37.7967568,34.8583784 37.6724324,35.0572973 37.3978378,35.0572973 L35.1210811,35.0572973 C35.0324324,35.0572973 34.9978378,35.0983784 34.9978378,35.172973 L34.9978378,36.5881081 L37.2562162,36.5881081 C37.5308108,36.5881081 37.6551351,36.787027 37.6551351,36.9697297 C37.6551351,37.1513514 37.5308108,37.3664865 37.2562162,37.3664865 L34.9978378,37.3664865 L34.9978378,39.0140541" id="Fill-3" fill="#55565A" sketch:type="MSShapeGroup" mask="url(#mask-2)"></path>
                <path d="M42.7848649,35.2637838 C42.3145946,35.9427027 41.9167568,36.8043243 41.6421622,37.7394595 L43.9448649,37.7394595 C43.6702703,36.8043243 43.2724324,35.9427027 42.8021622,35.2637838 L42.7848649,35.2637838 L42.7848649,35.2637838 Z M44.1491892,38.5016216 L41.4475676,38.5016216 C41.3675676,38.8659459 41.3048649,39.2302703 41.2605405,39.5945946 C41.2345946,39.8421622 41.0572973,40 40.8086486,40 C40.5524324,40 40.3664865,39.8508108 40.3664865,39.5113514 C40.3664865,38.3351351 41.3675676,35.3794595 42.4659459,34.3524324 C42.6789189,34.1545946 42.9794595,34.1621622 43.1837838,34.3524324 C44.2821622,35.3794595 45.2659459,38.3351351 45.2659459,39.5113514 C45.2659459,39.8508108 45.0616216,40 44.8043243,40 C44.5567568,40 44.3610811,39.8421622 44.3351351,39.5945946 C44.2908108,39.2302703 44.2291892,38.8659459 44.1491892,38.5016216 L44.1491892,38.5016216 Z" id="Fill-4" fill="#55565A" sketch:type="MSShapeGroup" mask="url(#mask-2)"></path>
                <path d="M49.0205405,39.0140541 C49.0205405,39.0886486 49.0572973,39.1308108 49.1459459,39.1308108 L51.492973,39.1308108 C51.7589189,39.1308108 51.8918919,39.3297297 51.8918919,39.5113514 C51.8918919,39.692973 51.7589189,39.9081081 51.492973,39.9081081 L48.7740541,39.9081081 C48.4367568,39.9081081 48.0918919,39.7189189 48.0918919,39.2551351 L48.0918919,34.6432432 C48.0918919,34.3286486 48.3221622,34.2043243 48.5524324,34.2043243 C48.7740541,34.2043243 49.0205405,34.3286486 49.0205405,34.6432432 L49.0205405,39.0140541" id="Fill-5" fill="#55565A" sketch:type="MSShapeGroup" mask="url(#mask-2)"></path>
                <path d="M55.4205405,35.0572973 L55.4205405,39.5437838 C55.4205405,39.8594595 55.1805405,39.9837838 54.96,39.9837838 C54.7297297,39.9837838 54.4908108,39.8594595 54.4908108,39.5437838 L54.4908108,35.0572973 L53.1437838,35.0572973 C52.8605405,35.0572973 52.7448649,34.8583784 52.7448649,34.6756757 C52.7448649,34.4854054 52.8605405,34.2789189 53.1437838,34.2789189 L56.8551351,34.2789189 C57.1297297,34.2789189 57.2627027,34.4854054 57.2627027,34.6756757 C57.2627027,34.8583784 57.1297297,35.0572973 56.8551351,35.0572973 L55.4205405,35.0572973" id="Fill-6" fill="#55565A" sketch:type="MSShapeGroup" mask="url(#mask-2)"></path>
                <path d="M64.3589189,39.5437838 C64.3589189,39.8594595 64.1113514,39.9837838 63.8897297,39.9837838 C63.6594595,39.9837838 63.4291892,39.8594595 63.4291892,39.5437838 L63.4291892,37.3664865 L60.5945946,37.3664865 L60.5945946,39.5437838 C60.5945946,39.8594595 60.3459459,39.9837838 60.1243243,39.9837838 C59.8940541,39.9837838 59.6637838,39.8594595 59.6637838,39.5437838 L59.6637838,34.6432432 C59.6637838,34.3286486 59.8940541,34.2043243 60.1243243,34.2043243 C60.3459459,34.2043243 60.5945946,34.3286486 60.5945946,34.6432432 L60.5945946,36.5881081 L63.4291892,36.5881081 L63.4291892,34.6432432 C63.4291892,34.3286486 63.6594595,34.2043243 63.8897297,34.2043243 C64.1113514,34.2043243 64.3589189,34.3286486 64.3589189,34.6432432 L64.3589189,39.5437838" id="Fill-7" fill="#55565A" sketch:type="MSShapeGroup" mask="url(#mask-2)"></path>
            </g>
            <g id="Group">
                <path d="M89.4594595,27.2097297 C89.4281081,27.187027 89.4054054,27.1491892 89.4054054,27.1048649 C89.4054054,27.0335135 89.4637838,26.9783784 89.5351351,26.9783784 C89.572973,26.9783784 89.5967568,26.9891892 89.6151351,27.0021622 C89.7437838,27.1048649 89.8821622,27.1621622 90.0508108,27.1621622 C90.2205405,27.1621622 90.3264865,27.0821622 90.3264865,26.9664865 L90.3264865,26.9621622 C90.3264865,26.8508108 90.2648649,26.7913514 89.9751351,26.7243243 C89.6443243,26.6443243 89.4572973,26.5459459 89.4572973,26.2583784 L89.4572973,26.2540541 C89.4572973,25.987027 89.68,25.8032432 89.9891892,25.8032432 C90.1848649,25.8032432 90.3427027,25.8540541 90.4832432,25.947027 C90.5135135,25.9654054 90.5427027,26.0032432 90.5427027,26.0562162 C90.5427027,26.1275676 90.4854054,26.1827027 90.4140541,26.1827027 C90.387027,26.1827027 90.3654054,26.1762162 90.3427027,26.1632432 C90.2227027,26.0854054 90.107027,26.0454054 89.9848649,26.0454054 C89.8237838,26.0454054 89.7308108,26.1275676 89.7308108,26.2302703 L89.7308108,26.2345946 C89.7308108,26.3545946 89.8021622,26.4075676 90.1027027,26.4789189 C90.4313514,26.56 90.6010811,26.6778378 90.6010811,26.9351351 L90.6010811,26.9405405 C90.6010811,27.2313514 90.3718919,27.4054054 90.0443243,27.4054054 C89.8335135,27.4054054 89.6324324,27.3383784 89.4594595,27.2097297" id="Fill-9" fill="#231F20" sketch:type="MSShapeGroup"></path>
                <path d="M90.9232432,25.9535135 C90.9232432,25.8778378 90.9827027,25.8162162 91.0616216,25.8162162 L91.0897297,25.8162162 C91.1502703,25.8162162 91.1902703,25.8475676 91.2172973,25.8897297 L91.6886486,26.6281081 L92.1632432,25.8875676 C92.1913514,25.8410811 92.2313514,25.8162162 92.2875676,25.8162162 L92.3167568,25.8162162 C92.3945946,25.8162162 92.4551351,25.8778378 92.4551351,25.9535135 L92.4551351,27.2583784 C92.4551351,27.3340541 92.3945946,27.3945946 92.3167568,27.3945946 C92.2432432,27.3945946 92.1805405,27.3318919 92.1805405,27.2583784 L92.1805405,26.3232432 L91.8,26.8951351 C91.7708108,26.9405405 91.7351351,26.9664865 91.6843243,26.9664865 C91.6356757,26.9664865 91.6,26.9405405 91.5708108,26.8951351 L91.1924324,26.3275676 L91.1924324,27.2605405 C91.1924324,27.3362162 91.132973,27.3945946 91.0572973,27.3945946 C90.9816216,27.3945946 90.9232432,27.3362162 90.9232432,27.2605405 L90.9232432,25.9535135" id="Fill-10" fill="#231F20" sketch:type="MSShapeGroup"></path>
                <path d="M83.3827027,17.1686486 C83.2821622,20.36 80.9135135,22.9762162 77.9286486,22.9762162 C74.8432432,22.9762162 72.492973,20.2464865 72.492973,16.9632432 L72.4875676,9.11027027 C72.4875676,7.40972973 71.2227027,6.53945946 70.1308108,6.53945946 C69.04,6.53945946 67.7654054,7.40972973 67.7654054,9.11027027 L67.7654054,16.9632432 C67.7654054,22.8972973 72.1318919,27.7232432 77.9286486,27.7232432 C80.0194595,27.7232432 81.7686486,27.1037838 83.3827027,25.8821622 L83.3827027,17.1686486" id="Fill-12" fill="#231F20" sketch:type="MSShapeGroup"></path>
                <path d="M85.7654054,27.7578378 C84.4497297,27.7578378 83.3827027,26.8172973 83.3827027,25.8248649 L83.3827027,8.93405405 C83.3827027,7.61837838 84.4497297,6.55135135 85.7654054,6.55135135 C87.0810811,6.55135135 88.1481081,7.61837838 88.1481081,8.93405405 L88.1481081,25.3751351 C88.1481081,26.6908108 87.0810811,27.7578378 85.7654054,27.7578378" id="Fill-13" fill="#231F20" sketch:type="MSShapeGroup"></path>
                <g id="Group-17" transform="translate(47.000000, 0.000000)" fill="#231F20" sketch:type="MSShapeGroup">
                    <path d="M10.147027,10.9005405 L10.147027,10.9427027 L15.492973,10.9427027 C16.4854054,10.9427027 17.4259459,9.87675676 17.4259459,8.56 C17.4259459,7.24432432 16.3589189,6.17837838 15.0432432,6.17837838 L10.147027,6.17837838 L10.147027,10.9005405" id="Fill-14"></path>
                    <path d="M9.33945946,1.35135135 C8.35027027,0.483243243 6.84540541,0.581621622 5.9772973,1.57081081 L1.23567568,6.97621622 C0.367567568,7.96540541 0.467027027,9.47027027 1.45513514,10.3383784 C1.87891892,10.7091892 2.45081081,10.9189189 2.97189189,10.9427027 C3.3027027,10.9481081 3.51891892,10.9427027 3.74054054,10.9427027 L5.4,10.9427027 L5.4,9.45405405 L9.55891892,4.71243243 C10.427027,3.72432432 10.3286486,2.21837838 9.33945946,1.35135135" id="Fill-16"></path>
                </g>
                <path d="M61.8951351,22.9664865 C60.5891892,22.9664865 59.4021622,22.412973 58.5708108,21.5816216 C57.7016216,20.7113514 57.147027,19.5243243 57.147027,18.2194595 L57.147027,3.24756757 C57.1243243,3.76972973 56.9318919,4.28864865 56.5589189,4.71243243 L52.4,9.45405405 L52.4,18.2194595 C52.4,20.8302703 53.4681081,23.2032432 55.2086486,24.9448649 C56.9102703,26.6454054 59.2832432,27.7135135 61.8951351,27.7135135 C63.5956757,27.7135135 64.4259459,26.5264865 64.4259459,25.3394595 C64.4259459,24.1535135 63.5956757,22.9664865 61.8951351,22.9664865" id="Fill-18" fill="#231F20" sketch:type="MSShapeGroup"></path>
                <path d="M35.6118919,10.9005405 C32.2897297,10.9005405 29.56,13.6302703 29.56,16.9535135 C29.56,20.2367568 32.2897297,22.9664865 35.6118919,22.9664865 C38.8962162,22.9664865 41.6259459,20.2367568 41.6259459,16.9535135 C41.6259459,13.6302703 38.9351351,10.9005405 35.6118919,10.9005405 L35.6118919,10.9005405 Z M46.4118919,25.1816216 C46.4118919,26.8832432 45.1859459,27.7135135 43.9989189,27.7135135 C42.9708108,27.7135135 41.9416216,27.08 41.7048649,25.8151351 C39.9632432,27.0410811 37.867027,27.7135135 35.6118919,27.7135135 C29.6789189,27.7135135 24.812973,22.8875676 24.812973,16.9535135 C24.812973,10.9794595 29.6789189,6.15351351 35.6118919,6.15351351 C41.5459459,6.15351351 46.4118919,10.9794595 46.4118919,16.9535135 L46.4118919,25.1816216 L46.4118919,25.1816216 Z" id="Fill-19" fill="#231F20" sketch:type="MSShapeGroup"></path>
                <g id="Group-23">
                    <mask id="mask-4" sketch:name="Clip 21" fill="white">
                        <use xlink:href="#path-3"></use>
                    </mask>
                    <g id="Clip-21"></g>
                    <path d="M41.6259459,16.9535135 C41.6259459,13.6302703 38.9351351,10.9005405 35.6118919,10.9005405 L35.6118919,6.15351351 C41.5459459,6.15351351 46.4118919,10.9794595 46.4118919,16.9535135 L46.4118919,25.1816216 C46.4118919,26.8832432 45.1859459,27.7135135 43.9989189,27.7135135 C42.9708108,27.7135135 41.9416216,27.08 41.7048649,25.8151351" id="Fill-20" fill="#231F20" sketch:type="MSShapeGroup" mask="url(#mask-4)"></path>
                    <path d="M10.8,10.9005405 C7.47675676,10.9005405 4.74702703,13.6302703 4.74702703,16.9535135 C4.74702703,20.2367568 7.47675676,22.9664865 10.8,22.9664865 C14.1232432,22.9664865 16.812973,20.2367568 16.812973,16.9535135 C16.812973,13.6302703 14.0832432,10.9005405 10.8,10.9005405 L10.8,10.9005405 Z M21.6,16.9535135 C21.6,22.8875676 16.7340541,27.7135135 10.8,27.7135135 C4.86594595,27.7135135 0,22.8875676 0,16.9535135 C0,10.9794595 4.86594595,6.15351351 10.8,6.15351351 C13.0151351,6.15351351 15.0724324,6.82594595 16.812973,7.97297297 L16.812973,3.33081081 C16.812973,1.62918919 18,0.76 19.187027,0.76 C20.372973,0.76 21.6,1.62918919 21.6,3.33081081 L21.6,16.9535135 L21.6,16.9535135 Z" id="Fill-22" fill="#231F20" sketch:type="MSShapeGroup" mask="url(#mask-4)"></path>
                </g>
                <path d="M10.8,22.9664865 C14.1232432,22.9664865 16.812973,20.2367568 16.812973,16.9535135 L16.812973,3.33081081 C16.812973,1.62918919 18,0.76 19.187027,0.76 C20.372973,0.76 21.6,1.62918919 21.6,3.33081081 L21.6,16.9535135 C21.6,22.8875676 16.7340541,27.7135135 10.8,27.7135135" id="Fill-24" fill="#231F20" sketch:type="MSShapeGroup"></path>
            </g>
            <path d="M30.3837838,1.74054054 L40.7394595,1.74054054 C41.3427027,1.74054054 41.7740541,2.25837838 41.7740541,2.77621622 C41.7740541,3.3372973 41.3427027,3.81189189 40.7394595,3.81189189 L30.3837838,3.81189189 C29.7805405,3.81189189 29.3491892,3.3372973 29.3491892,2.77621622 C29.3491892,2.25837838 29.7805405,1.74054054 30.3837838,1.74054054" id="Fill-11" fill="#FF8300" sketch:type="MSShapeGroup"></path>
        </g>
    </g>
</svg>