<?xml version="1.0" encoding="UTF-8" standalone="no"?>
<svg width="140px" height="60px" viewBox="0 0 140 60" version="1.1" xmlns="http://www.w3.org/2000/svg" xmlns:xlink="http://www.w3.org/1999/xlink" xmlns:sketch="http://www.bohemiancoding.com/sketch/ns">
    <!-- Generator: Sketch 3.3.3 (12081) - http://www.bohemiancoding.com/sketch -->
    <title>datu-logo_black copy 2</title>
    <desc>Created with Sketch.</desc>
    <defs>
        <path id="path-1" d="M0.0979972779,0.140723775 L139.68042,0.140723775 L139.68042,59.9010536 L0.0979972779,59.9010536"></path>
        <path id="path-3" d="M0.0979972779,0.140723775 L139.68042,0.140723775 L139.68042,59.9010536 L0.0979972779,59.9010536"></path>
    </defs>
    <g id="Page-1" stroke="none" stroke-width="1" fill="none" fill-rule="evenodd" sketch:type="MSPage">
        <g id="datuhealth.com-style-tile-1-copy-2" sketch:type="MSArtboardGroup" transform="translate(-495.000000, -221.000000)">
            <g id="datu-logo_black-copy-2" sketch:type="MSLayerGroup" transform="translate(495.000000, 221.000000)">
                <g id="Group-8">
                    <mask id="mask-2" sketch:name="Clip 2" fill="white">
                        <use xlink:href="#path-1"></use>
                    </mask>
                    <g id="Clip-2"></g>
                    <path d="M46.7839004,59.304077 C46.7839004,59.7856161 46.4082442,59.9752634 46.0734202,59.9752634 C45.7271631,59.9752634 45.3792728,59.7856161 45.3792728,59.304077 L45.3792728,55.982776 L41.0951585,55.982776 L41.0951585,59.304077 C41.0951585,59.7856161 40.7211355,59.9752634 40.3863115,59.9752634 C40.0384212,59.9752634 39.6905308,59.7856161 39.6905308,59.304077 L39.6905308,51.8286761 C39.6905308,51.3487861 40.0384212,51.1591388 40.3863115,51.1591388 C40.7211355,51.1591388 41.0951585,51.3487861 41.0951585,51.8286761 L41.0951585,54.7954191 L45.3792728,54.7954191 L45.3792728,51.8286761 C45.3792728,51.3487861 45.7271631,51.1591388 46.0734202,51.1591388 C46.4082442,51.1591388 46.7839004,51.3487861 46.7839004,51.8286761 L46.7839004,59.304077" id="Fill-1" fill-opacity="0.8" fill="#FFFFFF" sketch:type="MSShapeGroup" mask="url(#mask-2)"></path>
                    <path d="M52.8744313,58.4960147 C52.8744313,58.609803 52.9266965,58.6741182 53.0606261,58.6741182 L56.6489598,58.6741182 C57.0638149,58.6741182 57.251643,58.9775538 57.251643,59.2546038 C57.251643,59.5448465 57.0638149,59.8598259 56.6489598,59.8598259 L52.498775,59.8598259 C51.9908225,59.8598259 51.4681703,59.5712322 51.4681703,58.8637655 L51.4681703,52.2706367 C51.4681703,51.5631699 51.9908225,51.2729272 52.498775,51.2729272 L56.5003305,51.2729272 C56.9151857,51.2729272 57.1030138,51.6010994 57.1030138,51.8781493 C57.1030138,52.1568484 56.9151857,52.460284 56.5003305,52.460284 L53.0606261,52.460284 C52.9266965,52.460284 52.8744313,52.5229501 52.8744313,52.6367384 L52.8744313,54.7954191 L56.2863698,54.7954191 C56.701225,54.7954191 56.8890531,55.0988548 56.8890531,55.3775538 C56.8890531,55.6546038 56.701225,55.982776 56.2863698,55.982776 L52.8744313,55.982776 L52.8744313,58.4960147" id="Fill-3" fill-opacity="0.8" fill="#FFFFFF" sketch:type="MSShapeGroup" mask="url(#mask-2)"></path>
                    <path d="M64.6390045,52.7752634 C63.9285242,53.8109024 63.3274742,55.1252405 62.9126191,56.5517178 L66.3915225,56.5517178 C65.9766673,55.1252405 65.3756173,53.8109024 64.6651371,52.7752634 L64.6390045,52.7752634 L64.6390045,52.7752634 Z M66.7002139,57.7143381 L62.6186273,57.7143381 C62.497764,58.270087 62.4030332,58.825836 62.3360684,59.381585 C62.2968695,59.7592304 62.0290103,60 61.6533541,60 C61.2662648,60 60.9853393,59.7724233 60.9853393,59.2546038 C60.9853393,57.4603756 62.497764,52.9517178 64.1571845,51.3850664 C64.4789423,51.0832799 64.9329963,51.0948236 65.2416877,51.3850664 C66.9011083,52.9517178 68.3874003,57.4603756 68.3874003,59.2546038 C68.3874003,59.7724233 68.0787089,60 67.6899864,60 C67.3159634,60 67.0203383,59.7592304 66.9811394,59.381585 C66.9141746,58.825836 66.8210772,58.270087 66.7002139,57.7143381 L66.7002139,57.7143381 Z" id="Fill-4" fill-opacity="0.8" fill="#FFFFFF" sketch:type="MSShapeGroup" mask="url(#mask-2)"></path>
                    <path d="M74.0598094,58.4960147 C74.0598094,58.609803 74.1153412,58.6741182 74.2492709,58.6741182 L77.795139,58.6741182 C78.1969279,58.6741182 78.3978223,58.9775538 78.3978223,59.2546038 C78.3978223,59.5316537 78.1969279,59.8598259 77.795139,59.8598259 L73.6874198,59.8598259 C73.1778339,59.8598259 72.6568151,59.5712322 72.6568151,58.8637655 L72.6568151,51.8286761 C72.6568151,51.3487861 73.0047054,51.1591388 73.3525958,51.1591388 C73.6874198,51.1591388 74.0598094,51.3487861 74.0598094,51.8286761 L74.0598094,58.4960147" id="Fill-5" fill-opacity="0.8" fill="#FFFFFF" sketch:type="MSShapeGroup" mask="url(#mask-2)"></path>
                    <path d="M83.7288742,52.460284 L83.7288742,59.304077 C83.7288742,59.7856161 83.3662843,59.9752634 83.0330935,59.9752634 C82.6852032,59.9752634 82.3242465,59.7856161 82.3242465,59.304077 L82.3242465,52.460284 L80.2891697,52.460284 C79.8612483,52.460284 79.6864865,52.1568484 79.6864865,51.8781493 C79.6864865,51.5879066 79.8612483,51.2729272 80.2891697,51.2729272 L85.8962473,51.2729272 C86.3111025,51.2729272 86.5119969,51.5879066 86.5119969,51.8781493 C86.5119969,52.1568484 86.3111025,52.460284 85.8962473,52.460284 L83.7288742,52.460284" id="Fill-6" fill-opacity="0.8" fill="#FFFFFF" sketch:type="MSShapeGroup" mask="url(#mask-2)"></path>
                    <path d="M97.2328991,59.304077 C97.2328991,59.7856161 96.8588761,59.9752634 96.5240521,59.9752634 C96.1761618,59.9752634 95.8282714,59.7856161 95.8282714,59.304077 L95.8282714,55.982776 L91.5457904,55.982776 L91.5457904,59.304077 C91.5457904,59.7856161 91.1701342,59.9752634 90.8353101,59.9752634 C90.4874198,59.9752634 90.1395295,59.7856161 90.1395295,59.304077 L90.1395295,51.8286761 C90.1395295,51.3487861 90.4874198,51.1591388 90.8353101,51.1591388 C91.1701342,51.1591388 91.5457904,51.3487861 91.5457904,51.8286761 L91.5457904,54.7954191 L95.8282714,54.7954191 L95.8282714,51.8286761 C95.8282714,51.3487861 96.1761618,51.1591388 96.5240521,51.1591388 C96.8588761,51.1591388 97.2328991,51.3487861 97.2328991,51.8286761 L97.2328991,59.304077" id="Fill-7" fill-opacity="0.8" fill="#FFFFFF" sketch:type="MSShapeGroup" mask="url(#mask-2)"></path>
                </g>
                <g id="Group">
                    <path d="M135.154579,40.4894182 C135.107214,40.454787 135.072915,40.3970683 135.072915,40.3294549 C135.072915,40.2206138 135.161112,40.1365094 135.268909,40.1365094 C135.326074,40.1365094 135.362007,40.1530005 135.389773,40.1727897 C135.584134,40.3294549 135.793195,40.4168575 136.047988,40.4168575 C136.304414,40.4168575 136.464476,40.2948236 136.464476,40.1183692 L136.464476,40.1117728 C136.464476,39.9419148 136.371379,39.8512139 135.933657,39.7489693 C135.433871,39.6269354 135.151312,39.4768667 135.151312,39.0382043 L135.151312,39.0316079 C135.151312,38.6242785 135.48777,38.3439304 135.95489,38.3439304 C136.250515,38.3439304 136.488975,38.4214384 136.701303,38.5632616 C136.747035,38.5912964 136.791134,38.6490151 136.791134,38.7298213 C136.791134,38.8386624 136.704569,38.9227668 136.596772,38.9227668 C136.55594,38.9227668 136.523274,38.9128722 136.488975,38.8930829 C136.30768,38.7743472 136.132919,38.7133303 135.948357,38.7133303 C135.704997,38.7133303 135.564534,38.8386624 135.564534,38.9953275 L135.564534,39.001924 C135.564534,39.1849748 135.672331,39.265781 136.126385,39.3746221 C136.622905,39.4983051 136.879331,39.6780577 136.879331,40.0705451 L136.879331,40.0787907 C136.879331,40.5224004 136.533074,40.7879066 136.038188,40.7879066 C135.719697,40.7879066 135.415905,40.6856619 135.154579,40.4894182" id="Fill-9" fill="#FFFFFF" sketch:type="MSShapeGroup"></path>
                    <path d="M137.366051,38.5731562 C137.366051,38.4577187 137.455882,38.3637197 137.575112,38.3637197 L137.617577,38.3637197 C137.709041,38.3637197 137.769473,38.4115437 137.810305,38.4758589 L138.522419,39.6021988 L139.239432,38.4725607 C139.281898,38.4016491 139.342329,38.3637197 139.42726,38.3637197 L139.471359,38.3637197 C139.588956,38.3637197 139.68042,38.4577187 139.68042,38.5731562 L139.68042,40.563628 C139.68042,40.6790655 139.588956,40.7714155 139.471359,40.7714155 C139.360296,40.7714155 139.265565,40.6757673 139.265565,40.563628 L139.265565,39.1371507 L138.690647,40.0095282 C138.646549,40.0787907 138.59265,40.1183692 138.515886,40.1183692 C138.442388,40.1183692 138.388489,40.0787907 138.34439,40.0095282 L137.77274,39.1437471 L137.77274,40.5669262 C137.77274,40.6823637 137.682909,40.7714155 137.568579,40.7714155 C137.454248,40.7714155 137.366051,40.6823637 137.366051,40.5669262 L137.366051,38.5731562" id="Fill-10" fill="#FFFFFF" sketch:type="MSShapeGroup"></path>
                    <path d="M125.973867,25.1725149 C125.821972,30.040678 122.243438,34.0315163 117.73393,34.0315163 C113.072526,34.0315163 109.521758,29.8675218 109.521758,24.8591846 L109.513591,12.8800733 C109.513591,10.2860284 107.602644,8.95849748 105.953024,8.95849748 C104.305036,8.95849748 102.379389,10.2860284 102.379389,12.8800733 L102.379389,24.8591846 C102.379389,33.9111315 108.97624,41.2727439 117.73393,41.2727439 C120.892709,41.2727439 123.535368,40.3278058 125.973867,38.4643152 L125.973867,25.1725149" id="Fill-12" fill="#FFFFFF" sketch:type="MSShapeGroup"></path>
                    <path d="M129.573634,41.3255153 C127.585923,41.3255153 125.973867,39.8907925 125.973867,38.3769125 L125.973867,12.6112689 C125.973867,10.604306 127.585923,8.97663765 129.573634,8.97663765 C131.561346,8.97663765 133.173401,10.604306 133.173401,12.6112689 L133.173401,37.6908841 C133.173401,39.697847 131.561346,41.3255153 129.573634,41.3255153" id="Fill-13" fill="#FFFFFF" sketch:type="MSShapeGroup"></path>
                    <g id="Group-17" transform="translate(71.007194, 0.000000)" fill="#FFFFFF" sketch:type="MSShapeGroup">
                        <path d="M15.3300408,15.610994 L15.3300408,15.6753092 L23.4066498,15.6753092 C24.9060082,15.6753092 26.3269687,14.04929 26.3269687,12.040678 C26.3269687,10.0337151 24.7149135,8.40769583 22.727202,8.40769583 L15.3300408,8.40769583 L15.3300408,15.610994" id="Fill-14"></path>
                        <path d="M14.1099747,1.04443426 C12.6155162,-0.279798443 10.3419794,-0.12972973 9.03044915,1.37920293 L1.86684814,9.6247366 C0.555317908,11.1336693 0.705580401,13.4292258 2.1984056,14.7534585 C2.83865448,15.3191022 3.70266381,15.6390289 4.48990861,15.6753092 C4.98969473,15.6835547 5.31635232,15.6753092 5.65117636,15.6753092 L8.15827338,15.6753092 L8.15827338,13.4044892 L14.4415322,6.1715071 C15.7530624,4.66422355 15.6044332,2.36701787 14.1099747,1.04443426" id="Fill-16"></path>
                    </g>
                    <path d="M93.5106358,34.0166743 C91.537624,34.0166743 89.7442738,33.1723317 88.4882753,31.9041686 C87.1751118,30.5766377 86.3372351,28.7659185 86.3372351,26.7754466 L86.3372351,3.93696748 C86.302936,4.73348603 86.0122108,5.52505726 85.4487264,6.1715071 L79.1654676,13.4044892 L79.1654676,26.7754466 C79.1654676,30.7580394 80.7791561,34.3778287 83.4087498,37.0345396 C85.979545,39.6285845 89.5646121,41.257902 93.5106358,41.257902 C96.0797978,41.257902 97.3341629,39.4471828 97.3341629,37.6364636 C97.3341629,35.8273935 96.0797978,34.0166743 93.5106358,34.0166743" id="Fill-18" fill="#FFFFFF" sketch:type="MSShapeGroup"></path>
                    <path d="M53.8021388,15.610994 C48.7830449,15.610994 44.6589928,19.7749885 44.6589928,24.8443426 C44.6589928,29.8526798 48.7830449,34.0166743 53.8021388,34.0166743 C58.7640677,34.0166743 62.8881198,29.8526798 62.8881198,24.8443426 C62.8881198,19.7749885 58.822866,15.610994 53.8021388,15.610994 L53.8021388,15.610994 Z M70.1186856,37.395694 C70.1186856,39.991388 68.266537,41.257902 66.4731869,41.257902 C64.91993,41.257902 63.3650399,40.2915254 63.0073498,38.3620705 C60.3761229,40.2321576 57.2091775,41.257902 53.8021388,41.257902 C44.8386545,41.257902 37.4872254,33.8962895 37.4872254,24.8443426 C37.4872254,15.7313788 44.8386545,8.36976638 53.8021388,8.36976638 C62.7672565,8.36976638 70.1186856,15.7313788 70.1186856,24.8443426 L70.1186856,37.395694 L70.1186856,37.395694 Z" id="Fill-19" fill="#FFFFFF" sketch:type="MSShapeGroup"></path>
                    <g id="Group-23">
                        <mask id="mask-4" sketch:name="Clip 21" fill="white">
                            <use xlink:href="#path-3"></use>
                        </mask>
                        <g id="Clip-21"></g>
                        <path d="M62.8881198,24.8443426 C62.8881198,19.7749885 58.822866,15.610994 53.8021388,15.610994 L53.8021388,8.36976638 C62.7672565,8.36976638 70.1186856,15.7313788 70.1186856,24.8443426 L70.1186856,37.395694 C70.1186856,39.991388 68.266537,41.257902 66.4731869,41.257902 C64.91993,41.257902 63.3650399,40.2915254 63.0073498,38.3620705" id="Fill-20" fill="#FFFFFF" sketch:type="MSShapeGroup" mask="url(#mask-4)"></path>
                        <path d="M16.3165468,15.610994 C11.2958196,15.610994 7.17176745,19.7749885 7.17176745,24.8443426 C7.17176745,29.8526798 11.2958196,34.0166743 16.3165468,34.0166743 C21.337274,34.0166743 25.4008944,29.8526798 25.4008944,24.8443426 C25.4008944,19.7749885 21.2768423,15.610994 16.3165468,15.610994 L16.3165468,15.610994 Z M32.6330935,24.8443426 C32.6330935,33.8962895 25.2816644,41.257902 16.3165468,41.257902 C7.35142913,41.257902 0,33.8962895 0,24.8443426 C0,15.7313788 7.35142913,8.36976638 16.3165468,8.36976638 C19.6631538,8.36976638 22.7713008,9.39551077 25.4008944,11.145213 L25.4008944,4.06394869 C25.4008944,1.4682547 27.1942446,0.142372881 28.9875948,0.142372881 C30.7793117,0.142372881 32.6330935,1.4682547 32.6330935,4.06394869 L32.6330935,24.8443426 L32.6330935,24.8443426 Z" id="Fill-22" fill="#FFFFFF" sketch:type="MSShapeGroup" mask="url(#mask-4)"></path>
                    </g>
                    <path d="M16.3165468,34.0166743 C21.337274,34.0166743 25.4008944,29.8526798 25.4008944,24.8443426 L25.4008944,4.06394869 C25.4008944,1.4682547 27.1942446,0.142372881 28.9875948,0.142372881 C30.7793117,0.142372881 32.6330935,1.4682547 32.6330935,4.06394869 L32.6330935,24.8443426 C32.6330935,33.8962895 25.2816644,41.257902 16.3165468,41.257902" id="Fill-24" fill="#FFFFFF" sketch:type="MSShapeGroup"></path>
                </g>
                <path d="M45.9035582,1.63811269 L61.5488236,1.63811269 C62.4601983,1.63811269 63.1118802,2.42803481 63.1118802,3.21795694 C63.1118802,4.07384333 62.4601983,4.79780119 61.5488236,4.79780119 L45.9035582,4.79780119 C44.9921836,4.79780119 44.3405017,4.07384333 44.3405017,3.21795694 C44.3405017,2.42803481 44.9921836,1.63811269 45.9035582,1.63811269" id="Fill-11" fill="#FF8300" sketch:type="MSShapeGroup"></path>
            </g>
        </g>
    </g>
</svg>