<?xml version="1.0" encoding="UTF-8" standalone="no"?>
<svg width="140px" height="59px" viewBox="0 0 140 59" version="1.1" xmlns="http://www.w3.org/2000/svg" xmlns:xlink="http://www.w3.org/1999/xlink" xmlns:sketch="http://www.bohemiancoding.com/sketch/ns">
    <!-- Generator: Sketch 3.3.3 (12081) - http://www.bohemiancoding.com/sketch -->
    <title>datu-logo_black copy</title>
    <desc>Created with Sketch.</desc>
    <defs>
        <path id="path-1" d="M0.0976460331,1.13837838 L139.179773,1.13837838 L139.179773,59.9027027 L0.0976460331,59.9027027"></path>
        <path id="path-3" d="M0.0976460331,1.13837838 L139.179773,1.13837838 L139.179773,59.9027027 L0.0976460331,59.9027027"></path>
    </defs>
    <g id="Page-1" stroke="none" stroke-width="1" fill="none" fill-rule="evenodd" sketch:type="MSPage">
        <g id="datuhealth.com-style-tile-1-copy-2" sketch:type="MSArtboardGroup" transform="translate(-184.000000, -221.000000)">
            <g id="datu-logo_black-copy" sketch:type="MSLayerGroup" transform="translate(184.000000, 220.000000)">
                <g id="Group-8">
                    <mask id="mask-2" sketch:name="Clip 2" fill="white">
                        <use xlink:href="#path-1"></use>
                    </mask>
                    <g id="Clip-2"></g>
                    <path d="M46.6162162,59.3156757 C46.6162162,59.7891892 46.2419064,59.9756757 45.9082825,59.9756757 C45.5632665,59.9756757 45.2166231,59.7891892 45.2166231,59.3156757 L45.2166231,56.0497297 L40.947864,56.0497297 L40.947864,59.3156757 C40.947864,59.7891892 40.5751816,59.9756757 40.2415577,59.9756757 C39.8949143,59.9756757 39.5482709,59.7891892 39.5482709,59.3156757 L39.5482709,51.9648649 C39.5482709,51.492973 39.8949143,51.3064865 40.2415577,51.3064865 C40.5751816,51.3064865 40.947864,51.492973 40.947864,51.9648649 L40.947864,54.8821622 L45.2166231,54.8821622 L45.2166231,51.9648649 C45.2166231,51.492973 45.5632665,51.3064865 45.9082825,51.3064865 C46.2419064,51.3064865 46.6162162,51.492973 46.6162162,51.9648649 L46.6162162,59.3156757" id="Fill-1" fill="#55565A" sketch:type="MSShapeGroup" mask="url(#mask-2)"></path>
                    <path d="M52.6849172,58.5210811 C52.6849172,58.632973 52.7369951,58.6962162 52.8704446,58.6962162 L56.4459169,58.6962162 C56.8592851,58.6962162 57.04644,58.9945946 57.04644,59.267027 C57.04644,59.5524324 56.8592851,59.8621622 56.4459169,59.8621622 L52.3106074,59.8621622 C51.8044754,59.8621622 51.2836966,59.5783784 51.2836966,58.8827027 L51.2836966,52.3994595 C51.2836966,51.7037838 51.8044754,51.4183784 52.3106074,51.4183784 L56.2978204,51.4183784 C56.7111886,51.4183784 56.8983435,51.7410811 56.8983435,52.0135135 C56.8983435,52.2875676 56.7111886,52.5859459 56.2978204,52.5859459 L52.8704446,52.5859459 C52.7369951,52.5859459 52.6849172,52.6475676 52.6849172,52.7594595 L52.6849172,54.8821622 L56.0846266,54.8821622 C56.4979948,54.8821622 56.6851497,55.1805405 56.6851497,55.4545946 C56.6851497,55.727027 56.4979948,56.0497297 56.0846266,56.0497297 L52.6849172,56.0497297 L52.6849172,58.5210811" id="Fill-3" fill="#55565A" sketch:type="MSShapeGroup" mask="url(#mask-2)"></path>
                    <path d="M64.4073235,52.8956757 C63.6993897,53.9140541 63.100494,55.2064865 62.6871258,56.6091892 L66.15356,56.6091892 C65.7401918,55.2064865 65.1412961,53.9140541 64.4333624,52.8956757 L64.4073235,52.8956757 L64.4073235,52.8956757 Z M66.461145,57.7524324 L62.3941877,57.7524324 C62.2737576,58.2989189 62.1793665,58.8454054 62.1126417,59.3918919 C62.0735833,59.7632432 61.8066841,60 61.4323743,60 C61.0466725,60 60.7667539,59.7762162 60.7667539,59.267027 C60.7667539,57.5027027 62.2737576,53.0691892 63.9272305,51.5286486 C64.2478349,51.2318919 64.7002616,51.2432432 65.0078466,51.5286486 C66.6613194,53.0691892 68.1422842,57.5027027 68.1422842,59.267027 C68.1422842,59.7762162 67.8346992,60 67.44737,60 C67.0746876,60 66.7801221,59.7632432 66.7410636,59.3918919 C66.6743389,58.8454054 66.5815751,58.2989189 66.461145,57.7524324 L66.461145,57.7524324 Z" id="Fill-4" fill="#55565A" sketch:type="MSShapeGroup" mask="url(#mask-2)"></path>
                    <path d="M73.7943621,58.5210811 C73.7943621,58.632973 73.8496949,58.6962162 73.9831444,58.6962162 L77.5163034,58.6962162 C77.9166521,58.6962162 78.1168265,58.9945946 78.1168265,59.267027 C78.1168265,59.5394595 77.9166521,59.8621622 77.5163034,59.8621622 L73.4233072,59.8621622 C72.9155478,59.8621622 72.3963964,59.5783784 72.3963964,58.8827027 L72.3963964,51.9648649 C72.3963964,51.492973 72.7430398,51.3064865 73.0896832,51.3064865 C73.4233072,51.3064865 73.7943621,51.492973 73.7943621,51.9648649 L73.7943621,58.5210811" id="Fill-5" fill="#55565A" sketch:type="MSShapeGroup" mask="url(#mask-2)"></path>
                    <path d="M83.4287707,52.5859459 L83.4287707,59.3156757 C83.4287707,59.7891892 83.0674804,59.9756757 82.7354839,59.9756757 C82.3888405,59.9756757 82.0291776,59.7891892 82.0291776,59.3156757 L82.0291776,52.5859459 L80.0013949,52.5859459 C79.5750073,52.5859459 79.4008718,52.2875676 79.4008718,52.0135135 C79.4008718,51.7281081 79.5750073,51.4183784 80.0013949,51.4183784 L85.5883755,51.4183784 C86.0017437,51.4183784 86.201918,51.7281081 86.201918,52.0135135 C86.201918,52.2875676 86.0017437,52.5859459 85.5883755,52.5859459 L83.4287707,52.5859459" id="Fill-6" fill="#55565A" sketch:type="MSShapeGroup" mask="url(#mask-2)"></path>
                    <path d="M96.8843941,59.3156757 C96.8843941,59.7891892 96.5117117,59.9756757 96.1780878,59.9756757 C95.8314443,59.9756757 95.4848009,59.7891892 95.4848009,59.3156757 L95.4848009,56.0497297 L91.2176693,56.0497297 L91.2176693,59.3156757 C91.2176693,59.7891892 90.8433595,59.9756757 90.5097355,59.9756757 C90.1630921,59.9756757 89.8164487,59.7891892 89.8164487,59.3156757 L89.8164487,51.9648649 C89.8164487,51.492973 90.1630921,51.3064865 90.5097355,51.3064865 C90.8433595,51.3064865 91.2176693,51.492973 91.2176693,51.9648649 L91.2176693,54.8821622 L95.4848009,54.8821622 L95.4848009,51.9648649 C95.4848009,51.492973 95.8314443,51.3064865 96.1780878,51.3064865 C96.5117117,51.3064865 96.8843941,51.492973 96.8843941,51.9648649 L96.8843941,59.3156757" id="Fill-7" fill="#55565A" sketch:type="MSShapeGroup" mask="url(#mask-2)"></path>
                </g>
                <g id="Group">
                    <path d="M134.670154,40.8145946 C134.622958,40.7805405 134.588782,40.7237838 134.588782,40.6572973 C134.588782,40.5502703 134.676664,40.4675676 134.784074,40.4675676 C134.841035,40.4675676 134.876838,40.4837838 134.904505,40.5032432 C135.098169,40.6572973 135.306481,40.7432432 135.56036,40.7432432 C135.815867,40.7432432 135.975356,40.6232432 135.975356,40.4497297 L135.975356,40.4432432 C135.975356,40.2762162 135.882592,40.187027 135.44644,40.0864865 C134.948445,39.9664865 134.666899,39.8189189 134.666899,39.3875676 L134.666899,39.3810811 C134.666899,38.9805405 135.002151,38.7048649 135.467597,38.7048649 C135.762162,38.7048649 135.999768,38.7810811 136.211334,38.9205405 C136.256902,38.9481081 136.300843,39.0048649 136.300843,39.0843243 C136.300843,39.1913514 136.214589,39.2740541 136.107178,39.2740541 C136.066492,39.2740541 136.033944,39.2643243 135.999768,39.2448649 C135.819122,39.1281081 135.644987,39.0681081 135.461087,39.0681081 C135.218599,39.0681081 135.07864,39.1913514 135.07864,39.3454054 L135.07864,39.3518919 C135.07864,39.5318919 135.186051,39.6113514 135.638477,39.7183784 C136.133217,39.84 136.388724,40.0167568 136.388724,40.4027027 L136.388724,40.4108108 C136.388724,40.847027 136.043708,41.1081081 135.550596,41.1081081 C135.233246,41.1081081 134.930543,41.0075676 134.670154,40.8145946" id="Fill-9" fill="#231F20" sketch:type="MSShapeGroup"></path>
                    <path d="M136.8737,38.9302703 C136.8737,38.8167568 136.963208,38.7243243 137.082011,38.7243243 L137.124324,38.7243243 C137.215461,38.7243243 137.275676,38.7713514 137.316362,38.8345946 L138.025923,39.9421622 L138.740366,38.8313514 C138.782679,38.7616216 138.842895,38.7243243 138.927521,38.7243243 L138.971462,38.7243243 C139.088637,38.7243243 139.179773,38.8167568 139.179773,38.9302703 L139.179773,40.8875676 C139.179773,41.0010811 139.088637,41.0918919 138.971462,41.0918919 C138.860796,41.0918919 138.766405,40.9978378 138.766405,40.8875676 L138.766405,39.4848649 L138.193548,40.3427027 C138.149608,40.4108108 138.095902,40.4497297 138.019413,40.4497297 C137.946178,40.4497297 137.892473,40.4108108 137.848532,40.3427027 L137.278931,39.4913514 L137.278931,40.8908108 C137.278931,41.0043243 137.189422,41.0918919 137.075501,41.0918919 C136.961581,41.0918919 136.8737,41.0043243 136.8737,40.8908108 L136.8737,38.9302703" id="Fill-10" fill="#231F20" sketch:type="MSShapeGroup"></path>
                    <path d="M125.522348,25.752973 C125.370997,30.54 121.805289,34.4643243 117.311944,34.4643243 C112.667248,34.4643243 109.129207,30.3697297 109.129207,25.4448649 L109.121069,13.6654054 C109.121069,11.1145946 107.216972,9.80918919 105.573264,9.80918919 C103.931183,9.80918919 102.012438,11.1145946 102.012438,13.6654054 L102.012438,25.4448649 C102.012438,34.3459459 108.585644,41.5848649 117.311944,41.5848649 C120.459401,41.5848649 123.092589,40.6556757 125.522348,38.8232432 L125.522348,25.752973" id="Fill-12" fill="#231F20" sketch:type="MSShapeGroup"></path>
                    <path d="M129.109212,41.6367568 C127.128625,41.6367568 125.522348,40.2259459 125.522348,38.7372973 L125.522348,13.4010811 C125.522348,11.4275676 127.128625,9.82702703 129.109212,9.82702703 C131.089799,9.82702703 132.696077,11.4275676 132.696077,13.4010811 L132.696077,38.0627027 C132.696077,40.0362162 131.089799,41.6367568 129.109212,41.6367568" id="Fill-13" fill="#231F20" sketch:type="MSShapeGroup"></path>
                    <g id="Group-17" transform="translate(70.752688, 0.000000)" fill="#231F20" sketch:type="MSShapeGroup">
                        <path d="M15.2750944,16.3508108 L15.2750944,16.4140541 L23.322755,16.4140541 C24.8167393,16.4140541 26.2326068,14.8151351 26.2326068,12.84 C26.2326068,10.8664865 24.6263296,9.26756757 22.6457425,9.26756757 L15.2750944,9.26756757 L15.2750944,16.3508108" id="Fill-14"></path>
                        <path d="M14.0594013,2.02702703 C12.5702993,0.724864865 10.3049114,0.872432432 8.99808195,2.35621622 L1.86015693,10.4643243 C0.553327521,11.9481081 0.703051439,14.2054054 2.19052601,15.5075676 C2.82848009,16.0637838 3.68939262,16.3783784 4.47381575,16.4140541 C4.97181052,16.4221622 5.2972973,16.4140541 5.63092124,16.4140541 L8.12903226,16.4140541 L8.12903226,14.1810811 L14.3897704,7.06864865 C15.6965998,5.58648649 15.5485033,3.32756757 14.0594013,2.02702703" id="Fill-16"></path>
                    </g>
                    <path d="M93.1754722,34.4497297 C91.2095321,34.4497297 89.4226097,33.6194595 88.171113,32.3724324 C86.8626562,31.067027 86.0277826,29.2864865 86.0277826,27.3291892 L86.0277826,4.87135135 C85.9936065,5.65459459 85.7039233,6.43297297 85.1424586,7.06864865 L78.8817204,14.1810811 L78.8817204,27.3291892 C78.8817204,31.2454054 80.4896251,34.8048649 83.1097937,37.4172973 C85.6713746,39.9681081 89.243592,41.5702703 93.1754722,41.5702703 C95.7354257,41.5702703 96.985295,39.7897297 96.985295,38.0091892 C96.985295,36.2302703 95.7354257,34.4497297 93.1754722,34.4497297" id="Fill-18" fill="#231F20" sketch:type="MSShapeGroup"></path>
                    <path d="M53.6092996,16.3508108 C48.6081953,16.3508108 44.4989247,20.4454054 44.4989247,25.4302703 C44.4989247,30.3551351 48.6081953,34.4497297 53.6092996,34.4497297 C58.5534438,34.4497297 62.6627143,30.3551351 62.6627143,25.4302703 C62.6627143,20.4454054 58.6120314,16.3508108 53.6092996,16.3508108 L53.6092996,16.3508108 Z M69.8673641,37.7724324 C69.8673641,40.3248649 68.0218541,41.5702703 66.2349317,41.5702703 C64.6872421,41.5702703 63.137925,40.62 62.781517,38.7227027 C60.159721,40.5616216 57.0041267,41.5702703 53.6092996,41.5702703 C44.6779425,41.5702703 37.3528625,34.3313514 37.3528625,25.4302703 C37.3528625,16.4691892 44.6779425,9.23027027 53.6092996,9.23027027 C62.5422842,9.23027027 69.8673641,16.4691892 69.8673641,25.4302703 L69.8673641,37.7724324 L69.8673641,37.7724324 Z" id="Fill-19" fill="#231F20" sketch:type="MSShapeGroup"></path>
                    <g id="Group-23">
                        <mask id="mask-4" sketch:name="Clip 21" fill="white">
                            <use xlink:href="#path-3"></use>
                        </mask>
                        <g id="Clip-21"></g>
                        <path d="M62.6627143,25.4302703 C62.6627143,20.4454054 58.6120314,16.3508108 53.6092996,16.3508108 L53.6092996,9.23027027 C62.5422842,9.23027027 69.8673641,16.4691892 69.8673641,25.4302703 L69.8673641,37.7724324 C69.8673641,40.3248649 68.0218541,41.5702703 66.2349317,41.5702703 C64.6872421,41.5702703 63.137925,40.62 62.781517,38.7227027" id="Fill-20" fill="#231F20" sketch:type="MSShapeGroup" mask="url(#mask-4)"></path>
                        <path d="M16.2580645,16.3508108 C11.2553328,16.3508108 7.14606219,20.4454054 7.14606219,25.4302703 C7.14606219,30.3551351 11.2553328,34.4497297 16.2580645,34.4497297 C21.2607963,34.4497297 25.3098518,30.3551351 25.3098518,25.4302703 C25.3098518,20.4454054 21.2005812,16.3508108 16.2580645,16.3508108 L16.2580645,16.3508108 Z M32.516129,25.4302703 C32.516129,34.3313514 25.1910491,41.5702703 16.2580645,41.5702703 C7.32507992,41.5702703 0,34.3313514 0,25.4302703 C0,16.4691892 7.32507992,9.23027027 16.2580645,9.23027027 C19.5926765,9.23027027 22.6896832,10.2389189 25.3098518,11.9594595 L25.3098518,4.99621622 C25.3098518,2.44378378 27.0967742,1.14 28.8836966,1.14 C30.6689916,1.14 32.516129,2.44378378 32.516129,4.99621622 L32.516129,25.4302703 L32.516129,25.4302703 Z" id="Fill-22" fill="#231F20" sketch:type="MSShapeGroup" mask="url(#mask-4)"></path>
                    </g>
                    <path d="M16.2580645,34.4497297 C21.2607963,34.4497297 25.3098518,30.3551351 25.3098518,25.4302703 L25.3098518,4.99621622 C25.3098518,2.44378378 27.0967742,1.14 28.8836966,1.14 C30.6689916,1.14 32.516129,2.44378378 32.516129,4.99621622 L32.516129,25.4302703 C32.516129,34.3313514 25.1910491,41.5702703 16.2580645,41.5702703" id="Fill-24" fill="#231F20" sketch:type="MSShapeGroup"></path>
                </g>
                <path d="M45.7390294,2.61081081 L61.3282185,2.61081081 C62.2363266,2.61081081 62.8856728,3.38756757 62.8856728,4.16432432 C62.8856728,5.00594595 62.2363266,5.71783784 61.3282185,5.71783784 L45.7390294,5.71783784 C44.8309212,5.71783784 44.1815751,5.00594595 44.1815751,4.16432432 C44.1815751,3.38756757 44.8309212,2.61081081 45.7390294,2.61081081" id="Fill-11" fill="#FF8300" sketch:type="MSShapeGroup"></path>
            </g>
        </g>
    </g>
</svg>